<?xml version="1.0" encoding="UTF-8"?>
<svg width="628px" height="119px" viewBox="0 0 628 119" version="1.1" xmlns="http://www.w3.org/2000/svg" xmlns:xlink="http://www.w3.org/1999/xlink">
    <title>rip</title>
    <g id="Page-1" stroke="none" stroke-width="1" fill="none" fill-rule="evenodd">
        <g id="2032972" transform="translate(-5.000000, -476.000000)" fill="#FFFFFF" fill-rule="nonzero">
            <g id="Group" transform="translate(601.400000, 427.300000) scale(-1, 1) rotate(-180.000000) translate(-601.400000, -427.300000) translate(0.400000, 0.800000)">
                <path d="M94.2,377.1 C93.9,376.7 93.6,375.7 93.6,374.8 C93.6,372.8 89,369.3 83.9,367.4 C81.8,366.6 78.7,365.4 76.9,364.7 C74.4,363.7 73.2,363.7 71.4,364.6 C67.7,366.6 56.2,366.4 54.8,364.2 C53.8,362.7 47.2,359.8 44.8,359.8 C43.7,359.8 42.6,359.2 42.3,358.4 C41.8,357.3 32.5,354.7 27.1,354.2 C9.2,352.7 9.1,352.7 7.1,348.4 C5.2,344.5 4.69567347,339.2 4.8,324.8 C4.9,309.2 4.8,304.8 4.69567347,294.5 C4.6,284.4 6.2,280.9 13,276.3 C17.8,273 19,273.1 23.6,277.1 C31.8,284.1 48.9,288.3 62.6,286.6 C67.3,286.1 72.5,285 74.1,284.3 C79.9,281.8 89.2,280.5 100.6,280.6 C108.2,280.7 114.4,280.1 118.9,279 C124.8,277.6 126.4,277.6 131.4,278.8 C141.7,281.2 148.1,281.2 153,278.8 C156.9,277 158,276.8 161.6,277.8 C166,279 173.4,279 175.1,277.7 C175.7,277.3 177.6,276.7 179.4,276.3 C182,275.8 183.2,276.1 185.6,278.1 C187.2,279.5 190.2,281.2 192.2,281.8 C196.5,283.3 205.9,282.3 207.7,280.2 C208.3,279.4 209.4,278.8 210,278.8 C210.7,278.8 213.8,277.4 217,275.7 C222.6,272.7 223,272.6 228.4,273.7 C232.2,274.5 241.8,274.7 257.6,274.4 C289.9,273.7 304.8,272.6 305.4,271 C305.8,269.6 312,266.8 314.7,266.8 C315.8,266.8 318.4,268.4 320.5,270.3 C322.7,272.3 325.8,274.3 327.5,274.8 C330.4,275.6 331.2,275.2 337.7,269.6 C341.5,266.3 345,263.8 345.3,264.2 C345.7,264.5 346.6,264.2 347.5,263.5 C349.7,261.6 357.7,258.8 360.7,258.8 C363.4,258.8 365.3,260.5 367.6,265.1 C370,270 374,272.5 382.2,274.3 C388.5,275.7 390.7,275.8 393.9,274.8 C396,274.2 401,273.4 404.9,273.1 C409.8,272.7 414.2,271.5 418.6,269.5 C425,266.6 425.2,266.6 438.1,267.2 C445.3,267.5 453.7,268.3 456.9,268.8 C461.2,269.6 464.2,269.6 468.4,268.7 C475.8,267.2 496,267.4 505.8,269.2 C510.1,269.9 516.4,272 520,273.7 C523.6,275.4 527.1,276.8 527.9,276.8 C528.6,276.8 531.6,278.6 534.5,280.8 C540.7,285.3 545.3,286.3 556,285.5 C559.9,285.1 565,285.2 567.4,285.7 C569.7,286.2 571.6,286.1 571.6,285.7 C571.6,285.2 572.2,284.8 572.9,284.8 C574.3,284.8 588.4,279.1 590,277.9 C594.1,274.9 601.7,273.3 612.6,273.3 C618.9,273.3 624.6,273.6 625.2,274 C625.7,274.4 626.1,276.2 626,278 C625.8,279.8 627.3,286.6 629.2,293.1 C631.1,299.7 632.4,305.3 632.2,305.7 C632,306 631.2,312.6 630.6,320.3 C629.7,330.6 629,334.9 627.7,336.8 C624.2,341.7 621.2,351.1 621.3,356.6 C621.4,359.4 621.1,361.8 620.7,361.8 C620.4,361.8 620.2,363.6 620.4,365.8 C620.7,369.1 620.5,369.8 619.1,369.8 C615.9,369.8 609.4,367.4 608.9,366.1 C608.6,365.4 607.4,364.8 606.1,364.8 C604.9,364.8 603.1,363.9 602,362.7 C600.5,361 599.4,360.7 596.4,361.2 C594.1,361.6 591.3,361.3 589.3,360.5 C585.6,358.9 575.9,359.7 574.7,361.6 C574.3,362.3 572.7,363 571,363.4 C568.5,363.9 567.8,363.6 566.8,361.4 C566.1,359.7 564.4,358.6 561.7,357.8 C559.5,357.2 557.4,356.3 557.1,355.9 C556.4,354.6 534.2,355.4 531.7,356.7 C530.6,357.3 528.4,357.8 526.7,357.8 C525.1,357.8 523.6,358.3 523.4,359 C523.1,359.7 520.5,360.3 516.6,360.5 C513.1,360.6 510,361.2 509.6,361.8 C509.2,362.5 504.9,362.6 496.5,362.2 C489.7,361.8 483.2,361.5 482.1,361.6 C476.1,361.8 467,363.1 466.1,363.8 C464.6,365 458.5,364.3 457.6,362.8 C456.7,361.3 447.8,359.7 447,361 C446.7,361.4 446,361.6 445.5,361.3 C445,360.9 441.4,360.5 437.6,360.3 C432.4,360.1 430.6,360.3 430.6,361.3 C430.6,363.5 421.6,365.2 418.9,363.5 C418.3,363.1 416.7,363.2 415.4,363.7 C414.2,364.1 410.4,364.4 407.1,364.3 C402.6,364.1 399.8,364.6 396.1,366.3 C390.6,368.8 378.9,369.5 374.9,367.6 C373.3,366.8 372.3,366.8 371.4,367.6 C369.7,368.9 356.9,369 356,367.7 C355.2,366.3 351.1,364.8 346.2,364.3 C344,364 341.1,363.3 339.9,362.6 C337.3,361.3 331,362.9 326.4,366 C324.5,367.3 323.1,367.6 321.4,367 C320.2,366.5 317.2,365.8 314.9,365.4 C310.7,364.8 310.6,364.8 310.6,367.7 L310.6,370.5 L302.9,368.6 C298.6,367.5 293.1,366.4 290.6,366.1 C288,365.8 285.3,364.8 284.3,363.7 C282.8,362.1 281.5,361.8 277.5,362.2 C274.7,362.4 271.9,363.1 271.2,363.7 C270.5,364.3 267.8,364.9 265.1,365.2 C262.1,365.4 260,366.1 259.4,367.2 C258.9,368.1 257.9,368.8 257.1,368.8 C256.4,368.8 254.9,369.9 253.8,371.3 C252.7,372.6 249.9,374.4 247.5,375.2 C242.6,376.9 241.6,376.3 241.6,371.5 C241.6,369.8 240.9,368.5 239.9,368.1 C238.9,367.7 237.9,367.1 237.6,366.7 C236.6,365.3 225.1,361 224.8,361.9 C224.6,362.4 223.7,362.8 222.7,362.8 C221.8,362.8 220.5,363.3 219.8,364 C218.9,364.9 218.6,364.9 218.6,364 C218.6,362.6 215.3,362.4 212.8,363.7 C202,369.5 195.4,370.5 190.6,367 C187.8,364.9 186.7,364.7 176.3,365 C170.2,365.2 162.2,364.8 158.7,364.2 C154.5,363.4 151.4,363.3 149.8,363.9 C148.4,364.4 146.4,364.5 145.2,364.2 C139.1,362.2 115.9,361.7 114.4,363.6 C113.8,364.2 112.5,364.8 111.5,364.8 C108.1,364.8 102.9,368.3 100,372.5 C97.1,376.8 95.3,378.2 94.2,377.1 Z" id="rip"></path>
            </g>
        </g>
    </g>
</svg>